<svg width="336" height="138" viewBox="0 0 336 138" fill="none" xmlns="http://www.w3.org/2000/svg">
<path fill-rule="evenodd" clip-rule="evenodd" d="M101.781 0.382906C101.507 0.557441 101.128 1.02899 100.939 1.4305C100.71 1.9189 100.596 24.2774 100.596 69.0324C100.596 142.686 100.435 137.339 102.673 137.899C103.616 138.134 103.883 138.011 104.703 136.967L105.648 135.763L105.642 69.0278L105.637 2.29285L104.716 1.10746C103.801 -0.0702741 102.857 -0.303371 101.781 0.382906ZM39.0445 0.46137C38.9763 0.538304 38.0237 0.710925 36.9275 0.845272C35.8317 0.980001 34.8112 1.17674 34.6599 1.28314C34.3604 1.49404 33.4317 1.75125 31.8616 2.05822C30.3506 2.35409 24.3085 5.16311 22.8769 6.23559C22.1878 6.75192 21.5317 7.17448 21.4194 7.17448C20.7448 7.17448 15.6758 11.6898 13.0549 14.6255C10.3396 17.6669 7.15537 22.0169 7.15537 22.6852C7.15537 22.8134 6.79805 23.4668 6.36141 24.137C5.42156 25.5796 3.37851 30.1397 3.6723 30.1397C3.78457 30.1397 3.71835 30.3563 3.52541 30.6212C3.1933 31.0767 2.47127 33.1389 1.75059 35.6896C1.57244 36.3212 1.35328 37.4752 1.26386 38.2537C1.17445 39.0322 0.958313 40.0978 0.783185 40.6218C0.28301 42.1202 -0.0796839 47.1982 0.0151073 51.3825C0.152588 57.4713 1.06689 62.6087 3.08036 68.6064C4.00339 71.3565 7.06999 77.569 8.55639 79.7013C10.4374 82.3997 12.7393 85.291 13.7403 86.2131C14.4261 86.8446 15.2291 87.6388 15.5249 87.9779C15.821 88.317 17.0463 89.411 18.248 90.4092L20.4329 92.2238L20.6009 110.078C20.768 127.815 20.774 127.945 21.5549 129.804C22.3657 131.735 24.4823 134.631 25.0823 134.631C25.2692 134.631 25.6608 134.868 25.9526 135.156C26.6699 135.866 29.4367 136.856 31.6935 137.211C33.4784 137.492 52.6669 137.594 54.719 137.334C55.92 137.181 58.2142 136.602 58.9207 136.272C59.1981 136.143 59.5006 136.01 59.593 135.976C61.2478 135.375 62.8341 134.246 63.8159 132.971C65.0277 131.396 66.1719 129.273 65.8082 129.273C65.7047 129.273 65.7766 128.939 65.9682 128.531C66.5561 127.281 66.6059 125.798 66.6294 108.763L66.6519 92.2728L68.4167 90.8888C69.3871 90.1279 70.7865 88.8713 71.526 88.0966C72.2655 87.3223 73.2208 86.4251 73.6487 86.1036C74.6927 85.3182 79.7614 78.375 79.7614 77.7297C79.7614 77.4484 79.8888 77.2183 80.0447 77.2183C80.2004 77.2183 80.6162 76.5726 80.9691 75.783C81.3217 74.9938 81.8726 73.9401 82.1937 73.4413C82.5147 72.943 82.6948 72.3834 82.594 72.1974C82.4932 72.0118 82.5711 71.8598 82.7668 71.8598C82.9624 71.8598 83.1227 71.642 83.1227 71.3756C83.1227 71.1096 83.4253 70.2488 83.795 69.4634C84.1648 68.6776 84.4673 67.7 84.4673 67.2909C84.4673 66.8813 84.6001 66.453 84.7621 66.339C85.0223 66.1556 85.6236 63.9269 86.0088 61.7168C86.0825 61.2958 86.2243 60.5207 86.3241 59.9944C87.0472 56.1845 87.1813 54.5846 87.183 49.7455C87.184 46.7401 87.1057 44.1347 87.0085 43.9563C86.9117 43.7776 86.7467 42.792 86.6421 41.7658C86.4099 39.4896 85.948 37.3385 85.2562 35.3069C84.9695 34.4648 84.6666 33.3452 84.5833 32.819C84.3772 31.5176 81.0894 24.0156 80.7254 24.0156C80.5647 24.0156 80.4336 23.7573 80.4336 23.4415C80.4336 23.1257 80.3194 22.8674 80.1795 22.8674C80.0397 22.8674 79.7395 22.3935 79.5126 21.8148C78.5133 19.2672 70.7673 10.2844 68.901 9.50889C68.6977 9.42431 68.222 9.02586 67.8439 8.62359C67.1518 7.88717 60.1443 3.7297 59.595 3.7297C59.4334 3.7297 58.8747 3.53105 58.3544 3.288C57.2222 2.7598 57.2243 2.76057 54.8871 1.99124C51.5933 0.907278 47.7515 0.353434 43.4143 0.337358C41.0792 0.328555 39.1128 0.384437 39.0445 0.46137ZM43.3642 2.03487C43.3236 2.07238 41.74 2.21476 39.8455 2.35141C37.9511 2.48805 36.0223 2.76363 35.5598 2.96381C35.0972 3.16399 34.7188 3.24016 34.7188 3.13261C34.7188 3.02505 34.4542 3.09854 34.1305 3.29566C33.8068 3.49278 33.0885 3.74348 32.5339 3.85295C29.6797 4.41674 23.9384 7.39571 20.3313 10.1852C17.9128 12.055 13.9723 15.7895 13.0691 17.0671C12.7164 17.5659 12.178 18.2567 11.8724 18.6023C11.5669 18.9484 10.7258 20.1785 10.0035 21.3364C9.28111 22.4942 8.60951 23.5276 8.51102 23.6329C8.12345 24.0466 4.1802 32.4925 4.08777 33.1064C4.0639 33.2641 3.99835 33.5653 3.94222 33.7758C2.08976 40.7094 1.76639 42.9439 1.6437 49.6601C1.57311 53.5263 2.30657 59.9512 3.16473 62.9837C3.36204 63.6804 3.57246 64.5416 3.63297 64.8975C3.69314 65.2531 3.77314 65.5876 3.81011 65.6401C3.84743 65.6925 3.90323 65.8651 3.93415 66.0228C3.96507 66.1805 4.30995 67.1125 4.70021 68.0939C5.0908 69.0749 5.51837 70.2806 5.65048 70.7732C5.78224 71.2654 6.0888 71.9272 6.33149 72.2433C6.57385 72.5595 6.93385 73.2484 7.13117 73.7743C7.94866 75.9537 11.7571 81.4531 14.5175 84.4409C16.3306 86.4033 21.5791 90.9975 22.0077 90.9975C22.1744 90.9975 22.2887 98.571 22.2692 108.328C22.2443 120.807 22.3495 126.192 22.6453 127.562C23.0524 129.447 23.962 131.295 24.9583 132.262C25.4884 132.776 28.9062 134.733 29.5086 134.866C29.6935 134.908 30.2985 135.043 30.8532 135.167C35.2542 136.154 50.9015 136.155 56.4979 135.168C58.554 134.805 61.8505 132.808 62.94 131.265C63.4902 130.485 63.9198 129.761 63.8946 129.656C63.8697 129.55 64.019 129.103 64.226 128.662C65.0136 126.987 65.1013 125.172 65.2086 108.287L65.3188 90.9366L67.2459 89.4684C70.8759 86.7018 74.8682 82.2183 78.6652 76.6442C78.8084 76.4337 79.1156 75.8309 79.3479 75.3046C79.5798 74.7783 80.1604 73.5726 80.6377 72.6253C82.1463 69.6314 84.2767 62.854 84.9692 58.8462C85.831 53.8566 85.7702 45.5979 84.836 40.8193C84.6549 39.8926 84.434 38.7038 84.3456 38.1775C84.2569 37.6512 83.9523 36.4884 83.6683 35.5939C83.3846 34.699 83.227 33.9672 83.3177 33.9672C83.4081 33.9672 83.2935 33.5795 83.0626 33.106C82.8313 32.6326 82.6364 32.1587 82.6293 32.0535C82.5836 31.3928 79.3647 24.8523 77.8255 22.2932C75.6884 18.7401 69.3048 11.3848 68.3582 11.3848C68.1901 11.3848 68.0022 11.2466 67.9404 11.0774C67.5158 9.91308 57.6706 4.42823 55.0246 3.88204C54.5415 3.78214 53.1768 3.44455 51.9923 3.13184C49.5344 2.48269 43.6842 1.739 43.3642 2.03487ZM120.434 34.5413V65.756L125.392 65.6504L130.35 65.5444V34.5413V3.53832L125.392 3.4323L120.434 3.32666V34.5413ZM290.857 14.4269V20.9134L289.092 21.0294L287.327 21.145L287.23 24.6854L287.134 28.2259H288.995H290.857L290.896 41.5266C290.918 48.8422 290.913 54.9735 290.885 55.1519C290.858 55.3302 290.991 56.4387 291.182 57.6145C292.229 64.0654 295.052 66.2253 302.059 65.9375C304.125 65.8529 306.009 65.7442 306.246 65.6959C306.571 65.6297 306.653 64.6189 306.582 61.5572L306.487 57.5065L304.806 57.6298C303.882 57.6975 302.717 57.5758 302.217 57.3592C300.378 56.5615 300.304 55.9575 300.277 41.4864L300.253 28.2259H303.286H306.319V24.5898V20.9536H303.294H300.268V14.4468V7.93999H295.562H290.857V14.4269ZM152.956 21.171C152.077 21.4852 151.359 21.9093 151.359 22.1133C151.359 22.3177 151.143 22.4846 150.879 22.4846C150.615 22.4846 150.195 22.7001 149.945 22.9631C149.696 23.2264 149.005 23.8342 148.409 24.3142L147.325 25.1869V23.0702V20.9536H142.619H137.913V43.3447V65.7357H142.619H147.325L147.329 48.0334L147.334 30.3311L148.422 29.5334C150.488 28.0192 152.912 28.1031 153.604 29.7129C153.751 30.0528 153.919 38.3019 153.977 48.0441L154.085 65.7572L158.688 65.6508L163.292 65.5444V46.7895C163.292 29.618 163.239 27.8489 162.672 25.8337C162.332 24.6234 161.926 23.6329 161.771 23.6329C161.616 23.6329 161.401 23.3194 161.294 22.9363C160.749 20.9796 156.189 20.0147 152.956 21.171ZM185.308 21.0573C183.472 21.8711 181.611 23.0048 181.611 23.3102C181.611 23.4878 181.386 23.6329 181.11 23.6329C180.834 23.6329 180.42 23.9774 180.189 24.3984C179.408 25.823 178.922 25.3051 178.922 23.0476V20.9314L174.468 21.0382L170.015 21.145L169.928 43.4404L169.841 65.7357H174.466L179.09 65.7361L179 48.185L178.909 30.6342L180.3 29.5858C182.09 28.2374 184.031 28.0181 184.867 29.0695C185.433 29.7807 185.489 31.1391 185.645 47.6905L185.813 65.5444L190.446 65.6508L195.079 65.7576L194.972 46.3217C194.914 35.6322 194.769 26.5158 194.651 26.0626C194.069 23.8342 192.908 22.1949 191.084 21.0298C190.202 20.466 186.605 20.4828 185.308 21.0573ZM208.598 21.2835C207.633 21.6697 206.301 22.3996 205.637 22.9049C204.453 23.8066 202.509 26.6413 202.266 27.8198C202.198 28.1486 201.883 29.1924 201.565 30.1397C201.092 31.5459 200.96 33.5829 200.84 41.2395C200.604 56.3744 201.406 59.999 205.889 64.0574C206.656 64.7517 207.83 65.3997 207.83 65.1283C207.83 64.9898 208.031 65.0663 208.276 65.2983C209.565 66.5158 216.594 66.5675 218.552 65.374C218.941 65.1371 219.259 65.0399 219.259 65.1578C219.259 65.6267 221.188 64.1906 222.559 62.7017C224.262 60.8507 225.517 57.9505 225.886 55.0129C226.223 52.3271 226.23 34.7978 225.895 32.1468C225.257 27.0976 223.384 23.8901 219.992 22.0376C217.952 20.9237 217.408 20.8009 214.049 20.6964C211.131 20.6057 209.982 20.7293 208.598 21.2835ZM267.118 21.1542C264.932 21.8194 262.474 23.7002 261.447 25.4934C260.43 27.2694 259.383 30.9121 259.156 33.4654C258.985 35.3788 259.011 35.458 259.875 35.6391C260.369 35.7424 262.398 35.8305 264.386 35.8343L267.999 35.8419L268.007 34.4261C268.03 30.4685 269.183 28.3882 271.266 28.5482C273.637 28.73 274.082 29.7818 274.177 35.4263L274.218 37.8426L271.865 38.8963C267.054 41.0508 264.112 42.9719 262.231 45.1876C260.644 47.0578 260.423 47.4133 259.54 49.5127C258.876 51.0943 258.757 51.9727 258.765 55.21C258.777 59.6021 259.335 61.2801 261.64 63.853C263.966 66.4492 267.915 67.0176 270.777 65.1681C271.658 64.5986 272.551 63.7615 272.76 63.3076C272.97 62.8536 273.236 62.3962 273.35 62.291C273.465 62.1857 273.751 61.6035 273.985 60.9976C274.219 60.3914 274.486 59.9807 274.577 60.0844C274.872 60.4212 275.191 62.4207 275.341 64.8745C275.393 65.7189 275.477 65.7357 279.638 65.7357H283.881L283.672 63.5349C283.556 62.3246 283.384 55.3057 283.289 47.9377C283.049 29.4622 283.056 29.5679 281.995 27.0229C280.708 23.9379 280.035 23.1066 277.842 21.8929C276.142 20.9525 275.455 20.8055 272.369 20.724C270.185 20.6658 268.183 20.83 267.118 21.1542ZM318.831 21.1515C318.041 21.4225 316.982 21.9457 316.478 22.3143C315.282 23.19 313.378 25.3985 313.378 25.9103C313.378 26.1315 313.241 26.3122 313.073 26.3122C312.905 26.3122 312.425 27.4746 312.005 28.8957C311.299 31.2879 311.233 32.2724 311.123 42.1853C311.026 50.963 311.101 53.3743 311.54 55.5714C311.835 57.0453 312.255 58.4979 312.475 58.7991C312.694 59.1003 312.836 59.4062 312.79 59.4793C312.528 59.8915 312.867 60.5031 314.302 62.2068C315.8 63.9854 316.83 64.7027 319.26 65.6607C322.061 66.765 326.988 66.4339 329.758 64.9557C331.307 64.1286 333.546 61.8623 333.546 61.1213C333.546 60.9226 333.691 60.76 333.869 60.76C334.539 60.76 335.563 55.7631 335.563 52.4906V49.2774H331.196H326.829L326.854 52.2437C326.88 55.4592 326.583 56.7606 325.587 57.7814C324.098 59.3082 321.019 58.2357 320.636 56.0574C320.527 55.4336 320.437 52.4469 320.437 49.4209V43.9188H328.218H336L335.78 38.8473C335.551 33.5542 335.391 31.7419 335.012 30.1397C334.887 29.6134 334.745 28.9543 334.696 28.6745C334.482 27.4623 333.362 25.2864 332.239 23.9027C330.944 22.3074 329.859 21.5354 328.297 21.0991C326.524 20.6034 320.33 20.6378 318.831 21.1515ZM229.687 21.8148C229.691 22.2883 229.997 24.2261 230.368 26.1208C230.739 28.0154 231.122 30.1684 231.218 30.9052C231.314 31.642 231.466 32.4883 231.555 32.786C231.644 33.0834 231.796 33.9446 231.891 34.6998C231.987 35.4546 232.151 36.3307 232.256 36.6465C232.362 36.9623 232.509 37.7821 232.585 38.468C232.659 39.1543 233.032 41.3934 233.411 43.4438C233.791 45.4946 234.178 47.6889 234.273 48.3205C234.367 48.952 234.744 51.105 235.11 53.1049C235.477 55.1048 235.844 57.1716 235.925 57.6979C236.006 58.2242 236.163 59.0854 236.273 59.6117C236.383 60.138 236.545 61.0853 236.633 61.7168C236.722 62.3484 236.902 63.4679 237.033 64.2047L237.273 65.5444H242.453H247.633L248.379 61.3341C248.79 59.0184 249.211 56.521 249.315 55.7842C249.42 55.0474 249.641 53.8072 249.806 53.0283C249.97 52.2494 250.035 51.5322 249.949 51.4346C249.863 51.3366 249.946 50.9305 250.134 50.5316C250.321 50.1332 250.553 49.1281 250.647 48.2983C250.742 47.4685 250.905 46.3589 251.01 45.8326C251.114 45.3063 251.271 44.4451 251.36 43.9188C251.449 43.3925 251.601 42.5313 251.699 42.005C251.797 41.4788 251.958 40.4453 252.057 39.7085C252.157 38.9717 252.369 37.8522 252.53 37.2206C252.858 35.9307 253.87 30.1462 254.049 28.5337C254.114 27.9553 254.243 27.3406 254.336 27.168C254.43 26.995 254.598 26.1721 254.708 25.3388C254.818 24.5059 254.997 23.1732 255.105 22.3774L255.302 20.9306L250.81 21.0378L246.318 21.145L246.274 22.1019C246.233 22.9929 245.966 25.1536 245.68 26.9016C245.418 28.503 245.117 30.7804 244.973 32.2448C244.891 33.0869 244.673 34.9015 244.49 36.2775C244.306 37.6535 244.078 39.6343 243.982 40.6792C243.886 41.7241 243.729 43.0098 243.633 43.5361C243.537 44.0623 243.281 45.9979 243.064 47.8374C242.698 50.9305 242.413 51.7522 242.267 50.1309C242.235 49.7665 242.097 48.6937 241.962 47.7463C241.717 46.0274 241.602 45.0881 241.283 42.1964C241.19 41.3544 241.043 40.2647 240.957 39.7751C240.871 39.2856 240.711 37.8215 240.601 36.5217C240.491 35.2219 240.321 33.8512 240.224 33.4754C240.126 33.0999 239.994 32.2387 239.93 31.5616C239.718 29.3428 239.432 26.9131 239.199 25.3553C239.073 24.5132 238.944 23.652 238.913 23.4415C238.883 23.231 238.834 22.5853 238.806 22.0062L238.755 20.9536H234.217C229.733 20.9536 229.679 20.9639 229.687 21.8148ZM212.145 28.1008C211.838 28.1934 211.309 28.9053 210.969 29.6831C210.415 30.9511 210.344 32.3237 210.276 43.0289C210.198 55.3501 210.314 56.6989 211.578 58.1381C211.92 58.5277 212.2 58.7658 212.2 58.6671C212.2 58.5687 212.54 58.6311 212.955 58.806C214.071 59.276 215.501 58.5499 216.16 57.1781C216.667 56.1225 216.747 54.4931 216.811 43.8457C216.888 31.1302 216.769 29.8189 215.417 28.5314C214.76 27.9052 213.39 27.7249 212.145 28.1008ZM321.909 28.6711C320.783 29.2923 320.316 31.7982 320.404 36.7422L320.437 38.5603H323.63H326.823L326.862 35.9767C326.932 31.3308 326.724 30.1607 325.639 29.0871C324.709 28.167 323.14 27.9917 321.909 28.6711ZM41.0214 29.4174C40.6977 29.6253 40.4331 29.6942 40.4331 29.5713C40.4331 29.448 40.0926 29.5602 39.6768 29.8209C39.261 30.0811 38.6963 30.336 38.4223 30.3873C38.1484 30.4386 37.8711 30.6625 37.8062 30.8845C37.7413 31.1061 37.4879 31.2879 37.2428 31.2879C36.4149 31.2879 33.7742 35.0818 33.1769 37.1291C32.0364 41.0397 32.3742 45.9321 34.0424 49.6601C34.9433 51.673 39.5881 57.1138 40.8849 57.6753C42.137 58.2173 42.0009 58.6605 40.3491 59.4192C39.5632 59.7801 38.5423 60.2559 38.0801 60.4767C37.618 60.6972 37.0885 60.9165 36.9037 60.9643C36.7188 61.0122 35.7356 61.3448 34.7188 61.7034C33.7019 62.0621 32.3406 62.4376 31.6935 62.5382C31.0464 62.6393 30.0431 62.8896 29.4639 63.0951C28.8847 63.3011 28.2797 63.4419 28.1193 63.409C27.959 63.3757 27.1257 63.3688 26.2672 63.3941C24.6504 63.4408 23.7979 64.3471 24.7072 65.0522C25.1052 65.361 27.677 65.2309 29.6767 64.8011C30.1389 64.7015 31.1836 64.5155 31.998 64.3873C34.0468 64.0654 38.3679 62.4712 41.258 60.9716L43.6755 59.7169L44.9145 60.4407C46.6003 61.4256 51.5257 63.4748 51.5257 63.1912C51.5257 63.0657 51.7149 63.1395 51.9459 63.3558C52.1771 63.572 52.8955 63.8484 53.5425 63.9701C54.1896 64.0914 55.0972 64.2863 55.5594 64.4026C58.4821 65.1394 61.9776 65.438 62.5833 65.002C62.8411 64.8168 62.9675 64.4126 62.8633 64.1041C62.7322 63.7148 61.87 63.4576 60.0414 63.2616C57.2757 62.9654 56.7937 62.8888 54.8871 62.4429C53.2642 62.0636 53.2192 62.0491 51.605 61.3823C50.8168 61.0566 50.0981 60.7833 50.0084 60.7749C49.847 60.76 49.7499 60.7362 49.2568 60.5892C48.9771 60.5058 47.4147 59.7434 46.2009 59.098L45.4144 58.6797L46.2009 57.9831C50.0043 54.6156 53.3533 50.2407 53.7008 48.1861C53.7728 47.7613 54.0141 47.0252 54.237 46.5506C54.4599 46.0764 54.6595 44.3858 54.6807 42.7943C54.7422 38.1572 54.1072 35.966 51.8719 33.0988C49.8396 30.4918 47.3357 29.2023 44.1306 29.1116C42.7441 29.0722 41.3451 29.21 41.0214 29.4174ZM42.4499 30.8325C41.4741 30.9703 38.7396 32.076 38.2482 32.5311C35.1712 35.3823 34.2387 37.7197 34.2371 42.5868C34.2361 45.862 34.3013 46.1748 35.504 48.6665C36.8287 51.4101 40.7918 56.1669 41.7535 56.1669C41.9209 56.1669 42.1182 56.3736 42.1921 56.6262C42.2661 56.8788 42.9115 57.0855 43.6264 57.0855C44.3414 57.0855 44.9868 56.8788 45.0607 56.6262C45.1347 56.3736 45.3337 56.1669 45.5031 56.1669C45.6728 56.1669 46.1515 55.8087 46.5676 55.3712C50.2679 51.4774 51.6934 49.3746 52.5973 46.476C53.3287 44.1309 53.1997 39.8168 52.3247 37.3676C50.7075 32.8396 46.7556 30.2243 42.4499 30.8325ZM273.223 44.0371C272.861 44.2878 272.365 44.7023 272.119 44.958C271.873 45.2137 271.262 45.7066 270.76 46.0534C267.264 48.4694 266.186 55.1557 268.877 57.7308C270.068 58.8707 272.498 58.1105 273.674 56.2301C274.323 55.1917 274.386 54.5854 274.386 49.3141C274.386 46.1361 274.272 43.546 274.134 43.5586C273.995 43.5709 273.585 43.7864 273.223 44.0371ZM129.005 71.2906C126.293 71.939 124.271 73.1688 122.45 75.2755C120.689 77.3133 119.542 79.5558 119.184 81.6602C118.729 84.3349 118.947 90.6622 119.559 92.5216C120.384 95.0313 123.032 99.2986 124.756 100.898C125.58 101.663 126.571 102.633 126.958 103.054C127.344 103.475 128.417 104.567 129.342 105.48C135.862 111.923 137.673 114.888 137.797 119.322C137.882 122.335 137.256 124.069 135.762 124.955C134.592 125.65 132.811 125.72 131.476 125.125C129.305 124.157 127.639 119.837 127.514 114.852C127.486 113.751 126.775 113.627 124.132 114.261C122.93 114.549 121.569 114.875 121.106 114.985C120.644 115.094 120.039 115.24 119.762 115.31C119.485 115.378 119.126 115.448 118.964 115.464C118.802 115.481 118.761 116.484 118.871 117.695C119.424 123.759 121.11 128.258 123.83 130.929C124.959 132.037 127.493 133.668 127.493 133.286C127.493 133.169 127.805 133.264 128.187 133.496C129.224 134.128 130.078 134.295 133.039 134.447C144.113 135.016 150.254 124.588 146.475 111.633C146.183 110.631 145.725 109.605 145.458 109.352C145.191 109.1 144.972 108.656 144.972 108.366C144.972 108.076 144.821 107.839 144.636 107.839C144.451 107.839 144.3 107.604 144.3 107.317C144.3 106.677 139.879 101.483 136.913 98.6365C132.799 94.6895 129.292 90.4589 128.818 88.8713C126.948 82.6033 130.476 77.6398 135.046 80.1093C136.095 80.6758 136.788 81.9392 137.451 84.4907C137.729 85.5601 137.774 85.9574 137.856 88.0648L137.913 89.5338L139.342 89.2636C140.128 89.1151 140.997 88.9497 141.275 88.8965C141.552 88.8429 142.535 88.6608 143.46 88.4916C144.384 88.3224 145.254 88.1498 145.392 88.1077C145.531 88.0656 145.868 88.0097 146.142 87.9833C146.512 87.9477 146.605 87.568 146.504 86.5001C146.258 83.8955 145.919 82.0139 145.554 81.2373C145.357 80.8162 145.22 80.3856 145.25 80.2804C145.376 79.8429 144.56 77.6011 144.274 77.6011C144.103 77.6011 143.964 77.3431 143.964 77.0281C143.964 76.2764 141.666 73.3908 141.068 73.3908C140.812 73.3908 140.602 73.2301 140.602 73.0337C140.602 72.7401 139.604 72.1645 138.922 72.0642C138.829 72.0504 138.602 71.9356 138.418 71.8085C137.132 70.9255 131.766 70.6304 129.005 71.2906ZM260.423 71.9555C260.334 72.2188 260.302 86.2131 260.349 103.054L260.436 133.674L265.058 133.781L269.68 133.887V102.682V71.4771H265.132C261.802 71.4771 260.54 71.6053 260.423 71.9555ZM213.021 73.8842C212.925 74.1678 212.891 76.1964 212.944 78.3926L213.04 82.3855H217.746H222.452V77.9839V73.5822L217.823 73.4758C214.189 73.392 213.157 73.4796 213.021 73.8842ZM161.056 88.8862C160.945 89.0133 160.438 89.2031 159.931 89.308C156.993 89.9143 153.618 93.684 152.85 97.2172C152.816 97.3749 152.757 97.5475 152.721 97.6C152.32 98.173 152.199 101.46 152.199 111.858C152.199 122.986 152.258 124.281 152.841 126.019C153.194 127.072 153.58 128.019 153.699 128.125C153.818 128.23 154.256 128.955 154.673 129.736C155.414 131.125 158.204 133.286 159.832 133.732C163.702 134.792 168.608 134.443 171.152 132.925C172.708 131.997 175.508 128.606 175.748 127.359C175.769 127.254 175.973 126.651 176.203 126.019C176.924 124.034 177.005 122.828 177.123 112.432C177.245 101.624 176.95 98.3088 175.597 95.2885C174.255 92.2931 171.735 89.9759 169.006 89.2272C167.677 88.8629 161.316 88.59 161.056 88.8862ZM191.023 88.9559C190.561 89.0619 190.039 89.3061 189.864 89.499C189.688 89.6915 189.272 89.8492 188.939 89.8492C188.606 89.8492 188.334 89.9793 188.334 90.1386C188.334 90.2978 187.863 90.6652 187.287 90.9557C186.02 91.5946 184.464 94.0166 183.537 96.7939C182.915 98.6579 182.842 99.9034 182.732 110.518C182.633 120.029 182.705 122.602 183.118 124.404C183.959 128.074 185.023 129.994 187.472 132.262C189 133.678 191.922 134.406 195.714 134.316C200.647 134.2 203.792 132.338 205.525 128.507C206.701 125.911 207.033 123.458 206.886 118.46L206.822 116.259H202.445H198.068L198.091 119.991C198.103 122.044 198.036 124.13 197.941 124.628C197.594 126.461 195.404 127.398 193.746 126.422C191.967 125.374 191.764 123.749 191.817 110.901C191.86 100.433 191.913 99.498 192.536 98.0849C193.354 96.2301 194.776 95.5943 196.275 96.4127C197.705 97.1935 198.174 98.7011 198.215 102.648L198.25 106.116L202.487 106.223L206.723 106.33L206.921 103.635C207.132 100.773 206.712 96.7675 206.063 95.4366C205.847 94.9949 205.697 94.5219 205.731 94.3856C205.764 94.2493 205.196 93.369 204.47 92.4294C202.441 89.804 200.439 88.9876 195.729 88.8644C193.603 88.8089 191.486 88.8502 191.023 88.9559ZM237.747 89.0718C233.887 90.3698 230.959 93.3361 230.18 96.7388C230.157 96.844 229.973 97.6191 229.774 98.4612C229.574 99.3032 229.325 100.796 229.219 101.778L229.027 103.565L230.278 103.767C230.965 103.879 232.981 103.977 234.757 103.985L237.986 104.001L238.191 101.503C238.473 98.0681 239.155 96.8513 240.911 96.6496C243.452 96.3576 244.05 97.443 244.362 102.914L244.529 105.835L243.439 106.454C242.839 106.794 242.2 107.073 242.018 107.073C241.555 107.073 236.919 109.495 235.149 110.661C233.732 111.594 231.121 114.594 230.253 116.287C229.103 118.526 228.878 119.683 228.875 123.34C228.873 126.799 228.978 127.359 230.023 129.483C231.966 133.428 235.16 135.069 238.946 134.067C241.257 133.455 242.845 132.068 243.754 129.867C244.149 128.908 244.537 128.125 244.615 128.125C244.693 128.125 244.94 129.416 245.164 130.995L245.57 133.866H249.74H253.911L253.73 131.856C253.631 130.751 253.473 123.991 253.377 116.833C253.117 97.2283 253.144 97.6241 251.877 94.6635C250.023 90.3307 247.433 88.7989 241.948 88.7928C240.1 88.7909 238.209 88.9164 237.747 89.0718ZM213.03 89.5514C212.94 89.8205 212.905 99.8582 212.953 111.858L213.04 133.674H217.746H222.452V111.475V89.2751L217.823 89.1687C214.306 89.0875 213.155 89.1794 213.03 89.5514ZM163.268 96.3246C162.885 96.511 162.284 97.1541 161.933 97.7534C161.356 98.7371 161.28 99.7931 161.163 108.552C161.092 113.891 161.139 119.702 161.268 121.466C161.472 124.256 161.625 124.821 162.448 125.824C163.876 127.565 166.27 127.333 167.195 125.365C167.889 123.889 167.998 121.978 167.996 111.283C167.995 100.801 167.807 98.6621 166.743 97.0052C166.242 96.2251 164.268 95.8385 163.268 96.3246ZM31.6935 102.666V103.628H43.65H55.6061L55.4989 102.767L55.3913 101.906L43.5424 101.805L31.6935 101.705V102.666ZM31.754 111.762L31.8616 112.623H43.6264H55.3913L55.4989 111.762L55.6061 110.901H43.6264H31.6468L31.754 111.762ZM243.461 112.049C243.461 112.259 243.239 112.432 242.969 112.432C242.698 112.432 241.501 113.508 240.307 114.824C237.898 117.481 237.21 119.325 237.507 122.327C237.923 126.53 241.055 127.615 243.631 124.45C244.449 123.445 244.469 123.278 244.469 117.543C244.469 112.574 244.391 111.666 243.965 111.666C243.688 111.666 243.461 111.838 243.461 112.049ZM31.6935 121.039V122H43.65H55.6061L55.4989 121.139L55.3913 120.278L43.5424 120.177L31.6935 120.077V121.039Z" fill="#54605A"/>
</svg>
