<svg id="SvgjsSvg1001" width="288" height="288" xmlns="http://www.w3.org/2000/svg" version="1.1" xmlns:xlink="http://www.w3.org/1999/xlink" xmlns:svgjs="http://svgjs.com/svgjs"><defs id="SvgjsDefs1002"></defs><g id="SvgjsG1008"><svg xmlns="http://www.w3.org/2000/svg" viewBox="0 0 1000 361" width="288" height="288"><path fill="#ffffff" fill-rule="evenodd" d="M 299.489 180.500 C 299.489 274.550, 299.606 312.877, 299.750 265.671 C 299.894 218.465, 299.894 141.515, 299.750 94.671 C 299.606 47.827, 299.489 86.450, 299.489 180.500 M 533.461 125.500 C 533.461 150.800, 533.591 161.007, 533.749 148.181 C 533.908 135.356, 533.907 114.656, 533.749 102.181 C 533.590 89.707, 533.461 100.200, 533.461 125.500 M 816.405 129.500 C 816.406 138.300, 816.559 141.766, 816.745 137.203 C 816.930 132.639, 816.929 125.439, 816.742 121.203 C 816.555 116.966, 816.404 120.700, 816.405 129.500 M 194.458 281 C 194.458 304.375, 194.589 313.938, 194.749 302.250 C 194.909 290.563, 194.909 271.438, 194.749 259.750 C 194.589 248.063, 194.458 257.625, 194.458 281 M 500.428 291 C 500.428 303.375, 500.571 308.438, 500.747 302.250 C 500.922 296.063, 500.922 285.938, 500.747 279.750 C 500.571 273.563, 500.428 278.625, 500.428 291 M 571.425 292 C 571.425 303.825, 571.569 308.663, 571.746 302.750 C 571.923 296.837, 571.923 287.163, 571.746 281.250 C 571.569 275.337, 571.425 280.175, 571.425 292 M 727.405 307.500 C 727.406 316.300, 727.559 319.766, 727.745 315.203 C 727.930 310.639, 727.929 303.439, 727.742 299.203 C 727.555 294.966, 727.404 298.700, 727.405 307.500 M 616.310 309.500 C 616.315 312.800, 616.502 314.029, 616.725 312.232 C 616.947 310.435, 616.943 307.735, 616.715 306.232 C 616.486 304.729, 616.304 306.200, 616.310 309.500 M 127.750 355.723 C 129.537 355.945, 132.463 355.945, 134.250 355.723 C 136.037 355.502, 134.575 355.320, 131 355.320 C 127.425 355.320, 125.963 355.502, 127.750 355.723" class="color4c8464 svgShape"></path><path fill="#ffffff" fill-rule="evenodd" d="M 303.507 1.256 C 302.692 1.712, 301.565 2.944, 301.004 3.993 C 300.321 5.269, 299.983 63.684, 299.983 180.613 C 299.983 373.043, 299.503 359.073, 306.162 360.536 C 308.967 361.152, 309.762 360.831, 312.201 358.101 L 315.011 354.956 314.994 180.601 L 314.978 6.246 312.239 3.149 C 309.518 0.072, 306.710 -0.537, 303.507 1.256 M 116.869 1.461 C 116.666 1.662, 113.832 2.113, 110.571 2.464 C 107.311 2.816, 104.275 3.330, 103.825 3.608 C 102.934 4.159, 100.171 4.831, 95.500 5.633 C 91.005 6.406, 73.030 13.745, 68.771 16.547 C 66.721 17.896, 64.769 19, 64.435 19 C 62.428 19, 47.348 30.797, 39.551 38.467 C 31.473 46.413, 22 57.778, 22 59.524 C 22 59.859, 20.937 61.566, 19.638 63.317 C 16.842 67.086, 10.764 79, 11.638 79 C 11.972 79, 11.775 79.566, 11.201 80.258 C 10.213 81.448, 8.065 86.836, 5.921 93.500 C 5.391 95.150, 4.739 98.165, 4.473 100.199 C 4.207 102.233, 3.564 105.017, 3.043 106.386 C 1.555 110.301, 0.476 123.568, 0.758 134.500 C 1.167 150.408, 3.887 163.830, 9.877 179.500 C 12.623 186.685, 21.746 202.916, 26.168 208.487 C 31.764 215.537, 38.612 223.091, 41.590 225.500 C 43.630 227.150, 46.019 229.225, 46.899 230.111 C 47.780 230.997, 51.425 233.855, 55 236.463 L 61.500 241.204 62 287.852 C 62.497 334.191, 62.515 334.532, 64.838 339.389 C 67.250 344.432, 73.547 352, 75.332 352 C 75.888 352, 77.053 352.617, 77.921 353.372 C 80.055 355.225, 88.286 357.812, 95 358.740 C 100.310 359.474, 157.395 359.740, 163.500 359.060 C 167.073 358.662, 173.898 357.148, 176 356.287 C 176.825 355.949, 177.725 355.601, 178 355.513 C 182.923 353.942, 187.642 350.993, 190.563 347.661 C 194.168 343.548, 197.572 338, 196.490 338 C 196.182 338, 196.396 337.128, 196.966 336.063 C 198.715 332.795, 198.863 328.922, 198.933 284.416 L 199 241.332 204.250 237.716 C 207.137 235.728, 211.300 232.445, 213.500 230.421 C 215.700 228.398, 218.542 226.054, 219.815 225.214 C 222.921 223.162, 238 205.022, 238 203.336 C 238 202.601, 238.379 202, 238.843 202 C 239.306 202, 240.543 200.313, 241.593 198.250 C 242.642 196.188, 244.281 193.435, 245.236 192.132 C 246.191 190.830, 246.727 189.368, 246.427 188.882 C 246.127 188.397, 246.359 188, 246.941 188 C 247.523 188, 248 187.431, 248 186.735 C 248 186.040, 248.900 183.791, 250 181.739 C 251.100 179.686, 252 177.132, 252 176.063 C 252 174.993, 252.395 173.874, 252.877 173.576 C 253.651 173.097, 255.440 167.274, 256.586 161.500 C 256.805 160.400, 257.227 158.375, 257.524 157 C 259.675 147.046, 260.074 142.866, 260.079 130.223 C 260.082 122.371, 259.849 115.564, 259.560 115.098 C 259.272 114.631, 258.781 112.056, 258.470 109.375 C 257.779 103.428, 256.405 97.808, 254.347 92.500 C 253.494 90.300, 252.593 87.375, 252.345 86 C 251.732 82.600, 241.951 63, 240.868 63 C 240.390 63, 240 62.325, 240 61.500 C 240 60.675, 239.660 60, 239.244 60 C 238.828 60, 237.935 58.762, 237.260 57.250 C 234.287 50.594, 211.243 27.125, 205.691 25.099 C 205.086 24.878, 203.671 23.837, 202.546 22.786 C 200.487 20.862, 179.640 10, 178.006 10 C 177.525 10, 175.863 9.481, 174.315 8.846 C 170.947 7.466, 170.953 7.468, 164 5.458 C 154.201 2.626, 142.772 1.179, 129.869 1.137 C 122.922 1.114, 117.072 1.260, 116.869 1.461 M 129.720 5.572 C 129.599 5.670, 124.888 6.042, 119.252 6.399 C 113.616 6.756, 107.878 7.476, 106.502 7.999 C 105.126 8.522, 104 8.721, 104 8.440 C 104 8.159, 103.213 8.351, 102.250 8.866 C 101.287 9.381, 99.150 10.036, 97.500 10.322 C 89.009 11.795, 71.929 19.578, 61.198 26.866 C 54.003 31.751, 42.280 41.508, 39.593 44.846 C 38.544 46.149, 36.942 47.954, 36.033 48.857 C 35.124 49.761, 32.622 52.975, 30.473 56 C 28.324 59.025, 26.326 61.725, 26.033 62 C 24.880 63.081, 13.149 85.147, 12.874 86.751 C 12.803 87.163, 12.608 87.950, 12.441 88.500 C 6.930 106.615, 5.968 112.453, 5.603 130 C 5.393 140.101, 7.575 156.887, 10.128 164.810 C 10.715 166.630, 11.341 168.880, 11.521 169.810 C 11.700 170.739, 11.938 171.613, 12.048 171.750 C 12.159 171.887, 12.325 172.338, 12.417 172.750 C 12.509 173.162, 13.535 175.597, 14.696 178.161 C 15.858 180.724, 17.130 183.874, 17.523 185.161 C 17.915 186.447, 18.827 188.176, 19.549 189.002 C 20.270 189.828, 21.341 191.628, 21.928 193.002 C 24.360 198.696, 35.690 213.064, 43.902 220.870 C 49.296 225.997, 64.910 238, 66.185 238 C 66.681 238, 67.021 257.787, 66.963 283.279 C 66.889 315.882, 67.202 329.951, 68.082 333.529 C 69.293 338.454, 71.999 343.284, 74.963 345.809 C 76.540 347.153, 86.708 352.265, 88.500 352.614 C 89.050 352.722, 90.850 353.075, 92.500 353.400 C 105.593 355.979, 152.143 355.980, 168.792 353.402 C 174.909 352.454, 184.716 347.236, 187.957 343.204 C 189.594 341.167, 190.872 339.275, 190.797 339 C 190.723 338.725, 191.167 337.557, 191.783 336.405 C 194.126 332.027, 194.387 327.287, 194.706 283.171 L 195.034 237.841 200.767 234.005 C 211.566 226.777, 223.443 215.063, 234.739 200.500 C 235.165 199.950, 236.079 198.375, 236.770 197 C 237.460 195.625, 239.187 192.475, 240.607 190 C 245.095 182.178, 251.433 164.471, 253.493 154 C 256.057 140.964, 255.876 119.387, 253.097 106.902 C 252.558 104.481, 251.901 101.375, 251.638 100 C 251.374 98.625, 250.468 95.587, 249.623 93.250 C 248.779 90.912, 248.310 89, 248.580 89 C 248.849 89, 248.508 87.987, 247.821 86.750 C 247.133 85.513, 246.553 84.275, 246.532 84 C 246.396 82.274, 236.820 65.186, 232.241 58.500 C 225.883 49.217, 206.892 30, 204.076 30 C 203.576 30, 203.017 29.639, 202.833 29.197 C 201.570 26.155, 172.281 11.825, 164.409 10.398 C 162.972 10.137, 158.912 9.255, 155.388 8.438 C 148.076 6.742, 130.672 4.799, 129.720 5.572 M 359 90.500 L 359 172.053 373.750 171.777 L 388.500 171.500 388.500 90.500 L 388.500 9.500 373.750 9.223 L 359 8.947 359 90.500 M 866 37.948 L 866 54.895 860.750 55.198 L 855.500 55.500 855.212 64.750 L 854.925 74 860.462 74 L 866 74 866.118 108.750 C 866.184 127.863, 866.169 143.882, 866.086 144.348 C 866.003 144.814, 866.400 147.710, 866.968 150.782 C 870.083 167.636, 878.480 173.279, 899.326 172.527 C 905.472 172.306, 911.077 172.022, 911.782 171.896 C 912.751 171.723, 912.995 169.082, 912.782 161.083 L 912.500 150.500 907.500 150.822 C 904.750 150.999, 901.284 150.681, 899.798 150.115 C 894.325 148.031, 894.105 146.453, 894.026 108.645 L 893.954 74 902.977 74 L 912 74 912 64.500 L 912 55 903 55 L 894 55 894 38 L 894 21 880 21 L 866 21 866 37.948 M 455.750 55.568 C 453.137 56.389, 451 57.497, 451 58.030 C 451 58.564, 450.357 59, 449.571 59 C 448.786 59, 447.536 59.563, 446.794 60.250 C 446.053 60.938, 443.996 62.526, 442.223 63.780 L 439 66.060 439 60.530 L 439 55 425 55 L 411 55 411 113.500 L 411 172 425 172 L 439 172 439.012 125.750 L 439.025 79.500 442.262 77.416 C 448.410 73.460, 455.621 73.679, 457.680 77.885 C 458.115 78.773, 458.615 100.325, 458.790 125.778 L 459.110 172.056 472.805 171.778 L 486.500 171.500 486.500 122.500 C 486.500 77.637, 486.344 73.015, 484.657 67.750 C 483.643 64.588, 482.436 62, 481.974 62 C 481.513 62, 480.875 61.181, 480.557 60.180 C 478.935 55.068, 465.370 52.547, 455.750 55.568 M 551.998 55.271 C 546.535 57.397, 541 60.359, 541 61.157 C 541 61.621, 540.329 62, 539.508 62 C 538.688 62, 537.455 62.900, 536.768 64 C 534.444 67.722, 533 66.369, 533 60.471 L 533 54.942 519.750 55.221 L 506.500 55.500 506.242 113.750 L 505.984 172 519.742 172 L 533.500 172.001 533.231 126.146 L 532.961 80.292 537.100 77.553 C 542.423 74.030, 548.198 73.457, 550.686 76.204 C 552.368 78.062, 552.536 81.611, 553 124.854 L 553.500 171.500 567.283 171.778 L 581.065 172.057 580.748 121.278 C 580.574 93.350, 580.144 69.532, 579.792 68.348 C 578.062 62.526, 574.607 58.243, 569.182 55.199 C 566.557 53.726, 555.855 53.770, 551.998 55.271 M 621.283 55.862 C 618.414 56.871, 614.450 58.778, 612.475 60.098 C 608.953 62.454, 603.169 69.860, 602.446 72.939 C 602.245 73.798, 601.306 76.525, 600.360 79 C 598.955 82.674, 598.560 87.996, 598.205 108 C 597.503 147.542, 599.889 157.012, 613.224 167.615 C 615.506 169.429, 619 171.122, 619 170.413 C 619 170.051, 619.597 170.251, 620.327 170.857 C 624.160 174.038, 645.071 174.173, 650.898 171.055 C 652.054 170.436, 653 170.182, 653 170.490 C 653 171.715, 658.739 167.963, 662.816 164.073 C 667.884 159.237, 671.618 151.660, 672.716 143.985 C 673.719 136.968, 673.740 91.170, 672.743 84.244 C 670.845 71.052, 665.272 62.672, 655.180 57.832 C 649.112 54.922, 647.492 54.601, 637.500 54.328 C 628.819 54.091, 625.400 54.414, 621.283 55.862 M 795.380 55.524 C 788.876 57.262, 781.563 62.176, 778.509 66.861 C 775.482 71.501, 772.367 81.018, 771.691 87.689 C 771.184 92.688, 771.262 92.895, 773.832 93.368 C 775.300 93.638, 781.337 93.868, 787.250 93.878 L 798 93.898 798.024 90.199 C 798.091 79.859, 801.521 74.424, 807.719 74.842 C 814.772 75.317, 816.097 78.065, 816.379 92.812 L 816.500 99.125 809.500 101.878 C 795.188 107.507, 786.436 112.526, 780.841 118.315 C 776.118 123.201, 775.460 124.130, 772.836 129.615 C 770.860 133.747, 770.505 136.042, 770.530 144.500 C 770.564 155.975, 772.225 160.359, 779.083 167.081 C 786.003 173.864, 797.750 175.349, 806.265 170.517 C 808.886 169.029, 811.541 166.842, 812.165 165.656 C 812.789 164.470, 813.579 163.275, 813.920 163 C 814.261 162.725, 815.111 161.204, 815.808 159.621 C 816.505 158.037, 817.297 156.964, 817.569 157.235 C 818.448 158.115, 819.397 163.339, 819.843 169.750 C 819.997 171.956, 820.245 172, 832.624 172 L 845.248 172 844.625 166.250 C 844.282 163.088, 843.770 144.750, 843.486 125.500 C 842.774 77.230, 842.793 77.506, 839.636 70.857 C 835.808 62.797, 833.806 60.625, 827.281 57.454 C 822.226 54.997, 820.181 54.613, 811 54.400 C 804.503 54.248, 798.548 54.677, 795.380 55.524 M 949.224 55.517 C 946.872 56.225, 943.722 57.592, 942.224 58.555 C 938.665 60.843, 933 66.613, 933 67.950 C 933 68.528, 932.592 69, 932.093 69 C 931.594 69, 930.165 72.037, 928.916 75.750 C 926.815 82, 926.620 84.572, 926.293 110.471 C 926.004 133.404, 926.227 139.704, 927.533 145.444 C 928.409 149.295, 929.660 153.090, 930.313 153.877 C 930.966 154.664, 931.388 155.463, 931.250 155.654 C 930.472 156.731, 931.481 158.329, 935.750 162.780 C 940.207 167.427, 943.270 169.301, 950.500 171.804 C 958.831 174.689, 973.490 173.824, 981.729 169.962 C 986.338 167.801, 993 161.880, 993 159.944 C 993 159.425, 993.432 159, 993.960 159 C 995.954 159, 999 145.945, 999 137.395 L 999 129 986.008 129 L 973.017 129 973.090 136.750 C 973.169 145.151, 972.284 148.551, 969.321 151.218 C 964.891 155.207, 955.731 152.405, 954.593 146.714 C 954.267 145.084, 954 137.281, 954 129.375 L 954 115 977.150 115 L 1000.300 115 999.646 101.750 C 998.965 87.921, 998.489 83.186, 997.361 79 C 996.990 77.625, 996.567 75.903, 996.421 75.172 C 995.785 72.005, 992.452 66.320, 989.111 62.705 C 985.259 58.537, 982.031 56.520, 977.385 55.380 C 972.110 54.085, 953.681 54.175, 949.224 55.517 M 684.022 57.250 C 684.034 58.487, 684.946 63.550, 686.050 68.500 C 687.154 73.450, 688.291 79.075, 688.577 81 C 688.863 82.925, 689.314 85.136, 689.580 85.914 C 689.846 86.691, 690.296 88.941, 690.580 90.914 C 690.864 92.886, 691.353 95.175, 691.666 96 C 691.980 96.825, 692.419 98.967, 692.643 100.759 C 692.866 102.552, 693.973 108.402, 695.103 113.759 C 696.232 119.117, 697.385 124.850, 697.665 126.500 C 697.945 128.150, 699.066 133.775, 700.157 139 C 701.248 144.225, 702.339 149.625, 702.581 151 C 702.823 152.375, 703.288 154.625, 703.615 156 C 703.942 157.375, 704.425 159.850, 704.688 161.500 C 704.952 163.150, 705.487 166.075, 705.878 168 L 706.590 171.500 722.001 171.500 L 737.413 171.500 739.632 160.500 C 740.853 154.450, 742.106 147.925, 742.417 146 C 742.728 144.075, 743.384 140.835, 743.875 138.800 C 744.365 136.765, 744.558 134.891, 744.302 134.636 C 744.047 134.380, 744.294 133.319, 744.852 132.277 C 745.409 131.236, 746.097 128.610, 746.379 126.442 C 746.662 124.274, 747.147 121.375, 747.457 120 C 747.767 118.625, 748.236 116.375, 748.500 115 C 748.764 113.625, 749.217 111.375, 749.508 110 C 749.798 108.625, 750.278 105.925, 750.573 104 C 750.869 102.075, 751.502 99.150, 751.980 97.500 C 752.957 94.130, 755.966 79.017, 756.500 74.804 C 756.691 73.293, 757.075 71.687, 757.354 71.236 C 757.633 70.784, 758.131 68.634, 758.459 66.457 C 758.788 64.281, 759.320 60.799, 759.641 58.720 L 760.226 54.940 746.863 55.220 L 733.500 55.500 733.369 58 C 733.248 60.328, 732.452 65.973, 731.601 70.540 C 730.822 74.724, 729.926 80.674, 729.499 84.500 C 729.254 86.700, 728.607 91.441, 728.061 95.036 C 727.515 98.631, 726.835 103.806, 726.550 106.536 C 726.265 109.266, 725.798 112.625, 725.513 114 C 725.227 115.375, 724.465 120.432, 723.818 125.238 C 722.731 133.319, 721.882 135.466, 721.449 131.230 C 721.352 130.278, 720.943 127.475, 720.541 125 C 719.811 120.509, 719.469 118.055, 718.520 110.500 C 718.244 108.300, 717.808 105.453, 717.552 104.174 C 717.295 102.895, 716.818 99.070, 716.491 95.674 C 716.164 92.278, 715.659 88.697, 715.369 87.715 C 715.080 86.734, 714.686 84.484, 714.494 82.715 C 713.865 76.918, 713.014 70.570, 712.320 66.500 C 711.945 64.300, 711.563 62.050, 711.471 61.500 C 711.380 60.950, 711.236 59.263, 711.152 57.750 L 711 55 697.500 55 C 684.160 55, 684 55.027, 684.022 57.250 M 631.837 73.673 C 630.923 73.915, 629.348 75.775, 628.337 77.807 C 626.689 81.120, 626.477 84.706, 626.276 112.675 C 626.044 144.866, 626.390 148.390, 630.150 152.150 C 631.168 153.168, 632 153.790, 632 153.532 C 632 153.275, 633.010 153.438, 634.245 153.895 C 637.565 155.123, 641.819 153.226, 643.780 149.642 C 645.290 146.884, 645.527 142.627, 645.718 114.809 C 645.947 81.588, 645.592 78.162, 641.570 74.798 C 639.615 73.162, 635.541 72.691, 631.837 73.673 M 958.380 75.163 C 955.030 76.786, 953.640 83.333, 953.903 96.250 L 954 101 963.500 101 L 973 101 973.115 94.250 C 973.322 82.112, 972.704 79.055, 969.477 76.250 C 966.711 73.846, 962.042 73.388, 958.380 75.163 M 122.750 77.113 C 121.787 77.656, 121 77.836, 121 77.515 C 121 77.193, 119.987 77.486, 118.750 78.167 C 117.513 78.847, 115.833 79.513, 115.018 79.647 C 114.203 79.781, 113.378 80.366, 113.185 80.946 C 112.992 81.525, 112.238 82, 111.509 82 C 109.046 82, 101.190 91.912, 99.413 97.261 C 96.020 107.478, 97.025 120.260, 101.988 130 C 104.668 135.259, 118.486 149.474, 122.344 150.941 C 126.069 152.357, 125.664 153.515, 120.750 155.497 C 118.412 156.440, 115.375 157.683, 114 158.260 C 112.625 158.836, 111.050 159.409, 110.500 159.534 C 109.950 159.659, 107.025 160.528, 104 161.465 C 100.975 162.402, 96.925 163.383, 95 163.646 C 93.075 163.910, 90.090 164.564, 88.367 165.101 C 86.644 165.639, 84.844 166.007, 84.367 165.921 C 83.890 165.834, 81.411 165.816, 78.857 165.882 C 74.047 166.004, 71.511 168.372, 74.216 170.214 C 75.400 171.021, 83.051 170.681, 89 169.558 C 90.375 169.298, 93.483 168.812, 95.906 168.477 C 102.001 167.636, 114.856 163.471, 123.454 159.553 L 130.646 156.275 134.332 158.166 C 139.347 160.739, 154 166.093, 154 165.352 C 154 165.024, 154.563 165.217, 155.250 165.782 C 155.938 166.347, 158.075 167.069, 160 167.387 C 161.925 167.704, 164.625 168.213, 166 168.517 C 174.695 170.442, 185.094 171.222, 186.896 170.083 C 187.663 169.599, 188.039 168.543, 187.729 167.737 C 187.339 166.720, 184.774 166.048, 179.334 165.536 C 171.106 164.762, 169.672 164.562, 164 163.397 C 159.172 162.406, 159.038 162.368, 154.236 160.626 C 151.891 159.775, 149.753 159.061, 149.486 159.039 C 149.006 159, 148.717 158.938, 147.250 158.554 C 146.418 158.336, 141.770 156.344, 138.159 154.658 L 135.819 153.565 138.159 151.745 C 149.474 142.947, 159.437 131.517, 160.471 126.149 C 160.685 125.039, 161.403 123.116, 162.066 121.876 C 162.729 120.637, 163.323 116.220, 163.386 112.062 C 163.569 99.947, 161.680 94.222, 155.030 86.731 C 148.984 79.920, 141.535 76.551, 132 76.314 C 127.875 76.211, 123.713 76.571, 122.750 77.113 M 127 80.810 C 124.097 81.170, 115.962 84.059, 114.500 85.248 C 105.346 92.697, 102.572 98.804, 102.567 111.520 C 102.564 120.077, 102.758 120.894, 106.336 127.404 C 110.277 134.572, 122.067 147, 124.928 147 C 125.426 147, 126.013 147.540, 126.233 148.200 C 126.453 148.860, 128.373 149.400, 130.500 149.400 C 132.627 149.400, 134.547 148.860, 134.767 148.200 C 134.987 147.540, 135.579 147, 136.083 147 C 136.588 147, 138.012 146.064, 139.250 144.921 C 150.258 134.748, 154.499 129.254, 157.188 121.681 C 159.364 115.554, 158.980 104.283, 156.377 97.884 C 151.566 86.054, 139.809 79.221, 127 80.810 M 813.542 115.309 C 812.465 115.964, 810.987 117.047, 810.256 117.715 C 809.525 118.383, 807.706 119.671, 806.214 120.577 C 795.812 126.889, 792.605 144.358, 800.612 151.086 C 804.156 154.064, 811.384 152.078, 814.882 147.165 C 816.814 144.452, 817 142.868, 817 129.096 C 817 120.793, 816.663 114.026, 816.250 114.059 C 815.837 114.091, 814.619 114.654, 813.542 115.309 M 384.499 186.513 C 376.431 188.207, 370.413 191.420, 364.997 196.924 C 359.759 202.248, 356.346 208.107, 355.280 213.605 C 353.926 220.593, 354.576 237.124, 356.396 241.982 C 358.852 248.539, 366.729 259.688, 371.856 263.866 C 374.309 265.865, 377.257 268.400, 378.407 269.500 C 379.557 270.600, 382.749 273.453, 385.499 275.839 C 404.897 292.671, 410.286 300.418, 410.655 312.001 C 410.906 319.875, 409.043 324.404, 404.600 326.720 C 401.119 328.535, 395.821 328.719, 391.848 327.163 C 385.390 324.634, 380.434 313.347, 380.062 300.323 C 379.980 297.448, 377.864 297.124, 370 298.780 C 366.425 299.533, 362.375 300.383, 361 300.670 C 359.625 300.956, 357.825 301.338, 357 301.519 C 356.175 301.699, 355.107 301.881, 354.626 301.923 C 354.145 301.966, 354.021 304.587, 354.349 307.750 C 355.995 323.594, 361.010 335.348, 369.103 342.327 C 372.460 345.222, 380 349.483, 380 348.485 C 380 348.180, 380.929 348.427, 382.065 349.035 C 385.148 350.685, 387.691 351.122, 396.500 351.519 C 429.445 353.004, 447.714 325.761, 436.471 291.913 C 435.602 289.295, 434.240 286.614, 433.445 285.955 C 432.650 285.295, 432 284.135, 432 283.378 C 432 282.620, 431.550 282, 431 282 C 430.450 282, 430 281.386, 430 280.636 C 430 278.966, 416.849 265.396, 408.023 257.958 C 395.785 247.646, 385.353 236.593, 383.943 232.445 C 378.379 216.069, 388.875 203.101, 402.471 209.553 C 405.590 211.033, 407.652 214.334, 409.623 221 C 410.450 223.794, 410.584 224.832, 410.829 230.338 L 411 234.176 415.250 233.470 C 417.587 233.082, 420.175 232.650, 421 232.511 C 421.825 232.371, 424.750 231.895, 427.500 231.453 C 430.250 231.011, 432.837 230.560, 433.250 230.450 C 433.663 230.340, 434.666 230.194, 435.480 230.125 C 436.582 230.032, 436.857 229.040, 436.557 226.250 C 435.825 219.445, 434.815 214.529, 433.731 212.500 C 433.143 211.400, 432.736 210.275, 432.826 210 C 433.201 208.857, 430.772 203, 429.922 203 C 429.415 203, 429 202.326, 429 201.503 C 429 199.539, 422.165 192, 420.384 192 C 419.623 192, 419 191.580, 419 191.067 C 419 190.300, 416.030 188.796, 414 188.534 C 413.725 188.498, 413.050 188.198, 412.500 187.866 C 408.676 185.559, 392.713 184.788, 384.499 186.513 M 775.460 188.250 C 775.198 188.938, 775.100 225.500, 775.242 269.500 L 775.500 349.500 789.250 349.778 L 803 350.056 803 268.528 L 803 187 789.469 187 C 779.565 187, 775.809 187.335, 775.460 188.250 M 634.442 193.289 C 634.158 194.030, 634.055 199.330, 634.213 205.068 L 634.500 215.500 648.500 215.500 L 662.500 215.500 662.500 204 L 662.500 192.500 648.729 192.222 C 637.916 192.003, 634.848 192.232, 634.442 193.289 M 479.849 232.484 C 479.517 232.816, 478.011 233.312, 476.501 233.586 C 467.762 235.170, 457.722 245.019, 455.436 254.250 C 455.334 254.662, 455.160 255.113, 455.051 255.250 C 453.858 256.747, 453.500 265.335, 453.500 292.500 C 453.500 321.574, 453.674 324.957, 455.408 329.500 C 456.458 332.250, 457.607 334.725, 457.961 335 C 458.316 335.275, 459.620 337.169, 460.859 339.209 C 463.064 342.839, 471.363 348.484, 476.208 349.650 C 487.721 352.421, 502.315 351.508, 509.885 347.542 C 514.512 345.117, 522.842 336.258, 523.558 333 C 523.618 332.725, 524.226 331.150, 524.909 329.500 C 527.054 324.314, 527.297 321.163, 527.647 294 C 528.011 265.763, 527.133 257.102, 523.108 249.211 C 519.115 241.385, 511.618 235.331, 503.500 233.375 C 499.546 232.423, 480.623 231.710, 479.849 232.484 M 569 232.666 C 567.625 232.943, 566.072 233.581, 565.550 234.085 C 565.028 234.588, 563.790 235, 562.800 235 C 561.810 235, 561 235.340, 561 235.756 C 561 236.172, 559.598 237.132, 557.884 237.891 C 554.114 239.560, 549.486 245.888, 546.729 253.144 C 544.879 258.014, 544.662 261.268, 544.333 289 C 544.039 313.850, 544.252 320.571, 545.481 325.280 C 547.985 334.869, 551.149 339.884, 558.434 345.810 C 562.980 349.508, 571.673 351.410, 582.956 351.177 C 597.629 350.872, 606.985 346.008, 612.143 336 C 615.640 329.216, 616.628 322.809, 616.192 309.750 L 616 304 602.980 304 L 589.959 304 590.025 313.750 C 590.061 319.113, 589.862 324.564, 589.581 325.864 C 588.547 330.655, 582.032 333.102, 577.100 330.552 C 571.806 327.814, 571.205 323.569, 571.362 290 C 571.490 262.652, 571.646 260.209, 573.500 256.517 C 575.933 251.671, 580.163 250.010, 584.623 252.148 C 588.879 254.188, 590.274 258.127, 590.394 268.438 L 590.500 277.500 603.103 277.779 L 615.705 278.058 616.295 271.018 C 616.922 263.540, 615.674 253.075, 613.741 249.598 C 613.100 248.444, 612.655 247.208, 612.754 246.852 C 612.852 246.496, 611.164 244.196, 609.004 241.741 C 602.966 234.882, 597.011 232.749, 583 232.427 C 576.675 232.282, 570.375 232.390, 569 232.666 M 708 232.969 C 696.517 236.360, 687.808 244.110, 685.491 253 C 685.420 253.275, 684.875 255.300, 684.282 257.500 C 683.688 259.700, 682.946 263.600, 682.632 266.167 L 682.061 270.835 685.780 271.363 C 687.826 271.654, 693.823 271.910, 699.107 271.932 L 708.713 271.973 709.323 265.448 C 710.161 256.473, 712.189 253.294, 717.413 252.767 C 724.974 252.004, 726.753 254.840, 727.680 269.133 L 728.176 276.766 724.934 278.383 C 723.151 279.272, 721.249 280, 720.706 280 C 719.330 280, 705.537 286.327, 700.271 289.374 C 696.056 291.812, 688.290 299.650, 685.706 304.072 C 682.287 309.922, 681.615 312.944, 681.608 322.500 C 681.601 331.536, 681.913 333.001, 685.023 338.548 C 690.803 348.856, 700.305 353.143, 711.569 350.525 C 718.444 348.927, 723.167 345.303, 725.871 339.552 C 727.047 337.048, 728.200 335, 728.432 335 C 728.665 335, 729.399 338.375, 730.065 342.500 L 731.274 350 743.681 350 L 756.088 350 755.551 344.750 C 755.256 341.863, 754.784 324.200, 754.501 305.500 C 753.726 254.279, 753.806 255.313, 750.038 247.578 C 744.523 236.258, 736.816 232.256, 720.500 232.240 C 715 232.235, 709.375 232.563, 708 232.969 M 634.470 234.222 C 634.201 234.925, 634.098 261.150, 634.240 292.500 L 634.500 349.500 648.500 349.500 L 662.500 349.500 662.500 291.500 L 662.500 233.500 648.729 233.222 C 638.266 233.010, 634.842 233.250, 634.470 234.222 M 486.430 251.918 C 485.291 252.405, 483.503 254.085, 482.457 255.651 C 480.740 258.221, 480.516 260.980, 480.168 283.863 C 479.956 297.813, 480.096 312.996, 480.480 317.603 C 481.087 324.894, 481.542 326.369, 483.990 328.989 C 488.238 333.537, 495.360 332.933, 498.112 327.790 C 500.177 323.933, 500.500 318.942, 500.495 291 C 500.491 263.613, 499.932 258.025, 496.767 253.696 C 495.277 251.658, 489.404 250.648, 486.430 251.918 M 95 268.487 L 95 271 130.570 271 L 166.139 271 165.820 268.750 L 165.500 266.500 130.250 266.237 L 95 265.974 95 268.487 M 95.180 292.250 L 95.500 294.500 130.500 294.500 L 165.500 294.500 165.820 292.250 L 166.139 290 130.500 290 L 94.861 290 95.180 292.250 M 725 293 C 725 293.550, 724.341 294, 723.536 294 C 722.731 294, 719.168 296.813, 715.618 300.250 C 708.450 307.191, 706.403 312.009, 707.287 319.854 C 708.524 330.833, 717.842 333.669, 725.505 325.400 C 727.940 322.773, 728 322.337, 728 307.354 C 728 294.373, 727.768 292, 726.500 292 C 725.675 292, 725 292.450, 725 293 M 95 316.487 L 95 319 130.570 319 L 166.139 319 165.820 316.750 L 165.500 314.500 130.250 314.237 L 95 313.974 95 316.487" class="color548464 svgShape"></path></svg></g></svg>